<svg xmlns="http://www.w3.org/2000/svg" viewBox="0 0 512 512">
  <defs>
    <radialGradient id="bg" cx="50%" cy="42%" r="72%">
      <stop offset="0" stop-color="#0b3f88"/>
      <stop offset=".62" stop-color="#062f6e"/>
      <stop offset="1" stop-color="#031b45"/>
    </radialGradient>
    <filter id="glow" x="-60%" y="-60%" width="220%" height="220%">
      <feGaussianBlur stdDeviation="5" result="b"/>
      <feMerge><feMergeNode in="b"/><feMergeNode in="SourceGraphic"/></feMerge>
    </filter>
  </defs>
  <rect x="3" y="3" width="506" height="506" rx="88" fill="url(#bg)" stroke="#0750a8" stroke-width="5"/>
  <g stroke="#f6f7ff" stroke-width="5.5" stroke-linecap="round" opacity=".96" filter="url(#glow)">
    <path d="M133 183 L193 146"/>
    <path d="M282 145 L354 178"/>
    <path d="M397 216 L425 262"/>
    <path d="M407 318 L349 361"/>
    <path d="M325 345 L270 304"/>
    <path d="M237 299 L171 326"/>
    <path d="M150 310 L111 276"/>
    <path d="M99 254 L111 207"/>
    <path d="M329 385 L337 422"/>
  </g>
  <g fill="#fff" filter="url(#glow)">
    <circle cx="111" cy="198" r="13"/>
    <circle cx="95" cy="274" r="13"/>
    <circle cx="162" cy="326" r="14"/>
    <circle cx="254" cy="296" r="9"/>
    <circle cx="390" cy="184" r="15"/>
    <circle cx="438" cy="276" r="17"/>
    <circle cx="340" cy="438" r="14"/>
    <path d="M251 75 L260 112 L297 121 L260 130 L251 168 L242 130 L205 121 L242 112 Z"/>
    <path d="M346 326 L355 361 L390 370 L355 379 L346 415 L337 379 L302 370 L337 361 Z"/>
  </g>
  <g fill="#0d66b6" opacity=".9">
    <circle cx="61" cy="152" r="2.1"/><circle cx="80" cy="341" r="2.1"/><circle cx="463" cy="151" r="2.1"/>
    <circle cx="420" cy="395" r="2.1"/><circle cx="203" cy="429" r="2.1"/>
  </g>
  <g fill="#fff" opacity=".92" filter="url(#glow)">
    <circle cx="82" cy="97" r="3.2"/><circle cx="415" cy="74" r="3"/><circle cx="443" cy="389" r="3.1"/>
    <circle cx="146" cy="444" r="3.2"/>
  </g>
</svg>